<?xml version="1.0" encoding="utf-8" ?>
<svg xmlns="http://www.w3.org/2000/svg" xmlns:xlink="http://www.w3.org/1999/xlink" width="147.9619" height="32" viewBox="0 0 147.9619 32">
	<defs>
		<clipPath id="clipPath0140995427">
			<path transform="matrix(1 0 0 1 0 0)" d="M0 0L32 0L32 32L0 32L0 0Z" fill-rule="nonzero"/>
		</clipPath>
	</defs>
	<g clip-path="url(#clipPath0140995427)">
		<defs>
			<clipPath id="clipPath6928854312">
				<path transform="matrix(1 0 0 1 -0 -0)" d="M0 0L32 0L32 32L0 32L0 0Z" fill-rule="nonzero"/>
			</clipPath>
		</defs>
		<g clip-path="url(#clipPath6928854312)">
			<path transform="matrix(1 0 0 1 3.2 3.2)" d="M4.8 0C5.24183 0 5.61895 0.15621 5.93137 0.468629C6.24379 0.781048 6.4 1.15817 6.4 1.6L6.4 3.2L8 3.2C8.44183 3.2 8.81895 3.35621 9.13137 3.66863C9.44379 3.98105 9.6 4.35817 9.6 4.8C9.6 5.24183 9.44379 5.61895 9.13137 5.93137C8.81895 6.24379 8.44183 6.4 8 6.4L6.4 6.4L6.4 8C6.4 8.44183 6.24379 8.81895 5.93137 9.13137C5.61895 9.44379 5.24183 9.6 4.8 9.6C4.35817 9.6 3.98105 9.44379 3.66863 9.13137C3.35621 8.81895 3.2 8.44183 3.2 8L3.2 6.4L1.6 6.4C1.15817 6.4 0.781048 6.24379 0.468629 5.93137C0.15621 5.61895 -1.27157e-07 5.24183 0 4.8C-1.27157e-07 4.35817 0.156209 3.98105 0.468629 3.66863C0.781048 3.35621 1.15817 3.2 1.6 3.2L3.2 3.2L3.2 1.6C3.2 1.15817 3.35621 0.781049 3.66863 0.468629C3.98105 0.15621 4.35817 0 4.8 0ZM4.8 16C5.24183 16 5.61895 16.1562 5.93137 16.4686C6.24379 16.781 6.4 17.1582 6.4 17.6L6.4 19.2L8 19.2C8.44183 19.2 8.81895 19.3562 9.13137 19.6686C9.44379 19.981 9.6 20.3582 9.6 20.8C9.6 21.2418 9.44379 21.6189 9.13137 21.9314C8.81895 22.2438 8.44183 22.4 8 22.4L6.4 22.4L6.4 24C6.4 24.4418 6.24379 24.819 5.93137 25.1314C5.61895 25.4438 5.24183 25.6 4.8 25.6C4.35817 25.6 3.98105 25.4438 3.66863 25.1314C3.35621 24.819 3.2 24.4418 3.2 24L3.2 22.4L1.6 22.4C1.15817 22.4 0.781048 22.2438 0.468629 21.9314C0.15621 21.6189 -1.27157e-07 21.2418 0 20.8C-1.27157e-07 20.3582 0.156209 19.981 0.468629 19.6686C0.781048 19.3562 1.15817 19.2 1.6 19.2L3.2 19.2L3.2 17.6C3.2 17.1582 3.35621 16.781 3.66863 16.4686C3.98105 16.1562 4.35817 16 4.8 16ZM16 0C16.363 -0.000116984 16.6884 0.110516 16.9762 0.331899C17.2639 0.553283 17.4543 0.83945 17.5472 1.1904L19.4336 8.32L24.8 11.4144C25.3333 11.7223 25.5999 12.1842 25.5999 12.8C25.5999 13.4158 25.3333 13.8777 24.8 14.1856L19.4336 17.2816L17.5456 24.4096C17.4525 24.7602 17.2622 25.0461 16.9746 25.2672C16.6871 25.4884 16.3619 25.5989 15.9992 25.5989C15.6365 25.5989 15.3113 25.4884 15.0238 25.2672C14.7362 25.0461 14.5459 24.7602 14.4528 24.4096L12.5664 17.28L7.2 14.1856C6.66671 13.8777 6.40007 13.4158 6.40007 12.8C6.40007 12.1842 6.66671 11.7223 7.2 11.4144L12.5664 8.3184L14.4544 1.1904C14.5473 0.839737 14.7374 0.553733 15.0248 0.332387C15.3122 0.111041 15.6372 0.000245667 16 0Z" fill-rule="evenodd" fill="rgb(37, 99, 235)"/>
		</g>
	</g>
	<path transform="matrix(1 0 0 1 40 -2)" d="M13.4326 10.4541L13.4326 25L10.7715 25L4.44824 15.8447L4.34082 15.8447L4.34082 25L1.26953 25L1.26953 10.4541L3.95996 10.4541L10.2441 19.6045L10.3711 19.6045L10.3711 10.4541L13.4326 10.4541Z" fill-rule="nonzero" fill="rgb(255, 255, 255)"/>
	<path transform="matrix(1 0 0 1 40 -2)" d="M20.8784 25.21Q19.1987 25.21 17.9829 24.5264Q16.772 23.8428 16.1177 22.583Q15.4683 21.3232 15.4683 19.5947Q15.4683 17.9102 16.1226 16.6406Q16.7769 15.3711 17.9634 14.6631Q19.1548 13.9502 20.7563 13.9502Q21.8403 13.9502 22.7729 14.2969Q23.7056 14.6387 24.4038 15.332Q25.1069 16.0205 25.4976 17.0605Q25.8882 18.0957 25.8882 19.4873L25.8882 20.3174L16.6792 20.3174L16.6792 18.4424L23.0415 18.4424Q23.0366 17.793 22.7534 17.29Q22.4702 16.7822 21.9673 16.4941Q21.4692 16.2061 20.8101 16.2061Q20.1216 16.2061 19.5894 16.5234Q19.062 16.8408 18.7642 17.373Q18.4663 17.9004 18.4565 18.5449L18.4565 20.3271Q18.4565 21.1377 18.7593 21.7285Q19.0669 22.3193 19.6187 22.6367Q20.1753 22.9541 20.9272 22.9541Q21.4351 22.9541 21.8501 22.8125Q22.27 22.666 22.5679 22.3877Q22.8706 22.1045 23.0269 21.6943L25.8198 21.875Q25.6099 22.8857 24.9507 23.6377Q24.2964 24.3848 23.2612 24.7998Q22.231 25.21 20.8784 25.21Z" fill-rule="nonzero" fill="rgb(255, 255, 255)"/>
	<path transform="matrix(1 0 0 1 40 -2)" d="M32.7924 25.21Q31.1372 25.21 29.9311 24.5068Q28.7299 23.7988 28.0757 22.5342Q27.4214 21.2646 27.4214 19.585Q27.4214 17.8955 28.0757 16.6309Q28.7299 15.3613 29.9311 14.6582Q31.1372 13.9502 32.7924 13.9502Q34.4477 13.9502 35.6489 14.6582Q36.8549 15.3613 37.5044 16.6309Q38.1587 17.8955 38.1587 19.585Q38.1587 21.2646 37.5044 22.5342Q36.8549 23.7988 35.6489 24.5068Q34.4477 25.21 32.7924 25.21ZM32.8071 22.8711Q33.5542 22.8711 34.062 22.4414Q34.5698 22.0068 34.8286 21.2646Q35.0874 20.5176 35.0874 19.5703Q35.0874 18.6133 34.8286 17.8711Q34.5698 17.124 34.062 16.6895Q33.5542 16.2549 32.8071 16.2549Q32.0454 16.2549 31.5278 16.6895Q31.0151 17.124 30.7563 17.8711Q30.4975 18.6133 30.4975 19.5703Q30.4975 20.5176 30.7563 21.2646Q31.0151 22.0068 31.5278 22.4414Q32.0454 22.8711 32.8071 22.8711Z" fill-rule="nonzero" fill="rgb(255, 255, 255)"/>
	<path transform="matrix(1 0 0 1 40 -2)" d="M48.0827 14.6387Q47.9948 13.7793 47.3454 13.3008Q46.7009 12.8223 45.5974 12.8223Q44.8454 12.8223 44.323 13.0371Q43.8054 13.2471 43.5319 13.6182Q43.2634 13.9844 43.2585 14.4531Q43.2487 14.8438 43.4245 15.1367Q43.6052 15.4297 43.9226 15.6396Q44.2448 15.8496 44.6647 16.001Q45.0847 16.1475 45.5583 16.2549L46.8669 16.5674Q47.819 16.7822 48.6101 17.1387Q49.406 17.4951 49.9919 18.0127Q50.5778 18.5303 50.9001 19.2334Q51.2224 19.9365 51.2272 20.8447Q51.2224 22.1777 50.5485 23.1592Q49.8796 24.1357 48.6198 24.6729Q47.3601 25.2051 45.5827 25.2051Q43.82 25.2051 42.5163 24.668Q41.2126 24.126 40.4851 23.0664Q39.7624 22.002 39.7233 20.4297L42.7019 20.4297Q42.7507 21.1621 43.1218 21.6504Q43.4978 22.1387 44.1228 22.3828Q44.7478 22.627 45.5485 22.627Q46.3298 22.627 46.906 22.4023Q47.4821 22.1729 47.7995 21.7725Q48.1218 21.3672 48.1267 20.835Q48.1218 20.3467 47.8337 20.0146Q47.5456 19.6777 46.9939 19.4434Q46.447 19.209 45.656 19.0186L44.069 18.623Q42.2282 18.1787 41.1638 17.2266Q40.0993 16.2695 40.1042 14.6582Q40.0993 13.3398 40.8122 12.3535Q41.53 11.3623 42.78 10.8105Q44.03 10.2539 45.6218 10.2539Q47.238 10.2539 48.4489 10.8105Q49.6599 11.3623 50.3337 12.3535Q51.0124 13.3398 51.0319 14.6387L48.0827 14.6387Z" fill-rule="nonzero" fill="rgb(255, 255, 255)"/>
	<path transform="matrix(1 0 0 1 40 -2)" d="M53.2349 29.0918L53.2349 14.0918L56.2183 14.0918L56.2183 15.9277L56.3502 15.9277Q56.5504 15.4785 56.9263 15.0244Q57.3072 14.5654 57.9224 14.2578Q58.5377 13.9502 59.4508 13.9502Q60.647 13.9502 61.6529 14.5703Q62.6637 15.1904 63.2642 16.4404Q63.8697 17.6855 63.8697 19.5557Q63.8697 21.3818 63.2838 22.6367Q62.6978 23.8867 61.692 24.5312Q60.691 25.1758 59.4459 25.1758Q58.5621 25.1758 57.9469 24.8828Q57.3365 24.5898 56.9459 24.1504Q56.5601 23.7061 56.3502 23.2568L56.2574 23.2568L56.2574 29.0918L53.2349 29.0918ZM56.1939 19.5459Q56.1939 20.5176 56.4625 21.2402Q56.7359 21.9629 57.2437 22.3682Q57.7564 22.7686 58.484 22.7686Q59.231 22.7686 59.7388 22.3584Q60.2515 21.9482 60.5152 21.2256Q60.7789 20.498 60.7789 19.5459Q60.7789 18.5986 60.5152 17.8809Q60.2564 17.1631 59.7437 16.7627Q59.2359 16.3574 58.484 16.3574Q57.7515 16.3574 57.2388 16.748Q56.731 17.1387 56.4625 17.8564Q56.1939 18.5693 56.1939 19.5459Z" fill-rule="nonzero" fill="rgb(255, 255, 255)"/>
	<path transform="matrix(1 0 0 1 40 -2)" d="M68.9065 18.6914L68.9065 25L65.884 25L65.884 10.4541L68.8186 10.4541L68.8186 16.0156L68.9456 16.0156Q69.3215 15.0537 70.1419 14.502Q70.9671 13.9502 72.2073 13.9502Q73.3499 13.9502 74.1946 14.4434Q75.0442 14.9365 75.513 15.8545Q75.9866 16.7725 75.9817 18.0518L75.9817 25L72.9592 25L72.9592 18.5889Q72.9592 17.583 72.4465 17.0215Q71.9339 16.46 71.0061 16.46Q70.3958 16.46 69.9173 16.7285Q69.4436 16.9922 69.1751 17.4902Q68.9114 17.9883 68.9065 18.6914Z" fill-rule="nonzero" fill="rgb(255, 255, 255)"/>
	<path transform="matrix(1 0 0 1 40 -2)" d="M83.3356 25.21Q81.6559 25.21 80.4401 24.5264Q79.2292 23.8428 78.5749 22.583Q77.9255 21.3232 77.9255 19.5947Q77.9255 17.9102 78.5798 16.6406Q79.2341 15.3711 80.4206 14.6631Q81.612 13.9502 83.2136 13.9502Q84.2975 13.9502 85.2302 14.2969Q86.1628 14.6387 86.861 15.332Q87.5641 16.0205 87.9548 17.0605Q88.3454 18.0957 88.3454 19.4873L88.3454 20.3174L79.1364 20.3174L79.1364 18.4424L85.4987 18.4424Q85.4938 17.793 85.2106 17.29Q84.9274 16.7822 84.4245 16.4941Q83.9265 16.2061 83.2673 16.2061Q82.5788 16.2061 82.0466 16.5234Q81.5192 16.8408 81.2214 17.373Q80.9235 17.9004 80.9138 18.5449L80.9138 20.3271Q80.9138 21.1377 81.2165 21.7285Q81.5241 22.3193 82.0759 22.6367Q82.6325 22.9541 83.3845 22.9541Q83.8923 22.9541 84.3073 22.8125Q84.7272 22.666 85.0251 22.3877Q85.3278 22.1045 85.4841 21.6943L88.277 21.875Q88.0671 22.8857 87.4079 23.6377Q86.7536 24.3848 85.7184 24.7998Q84.6882 25.21 83.3356 25.21Z" fill-rule="nonzero" fill="rgb(255, 255, 255)"/>
	<path transform="matrix(1 0 0 1 40 -2)" d="M90.3229 25L90.3229 14.0918L93.2526 14.0918L93.2526 15.9961L93.3698 15.9961Q93.6676 14.9805 94.3659 14.458Q95.069 13.9355 95.987 13.9355Q96.2165 13.9355 96.4753 13.9648Q96.7389 13.9893 96.9342 14.0381L96.9342 16.7285Q96.7292 16.6602 96.3483 16.6113Q95.9723 16.5625 95.6598 16.5625Q94.9958 16.5625 94.4684 16.8506Q93.946 17.1387 93.6432 17.6514Q93.3454 18.1592 93.3454 18.8281L93.3454 25L90.3229 25Z" fill-rule="nonzero" fill="rgb(255, 255, 255)"/>
	<path transform="matrix(1 0 0 1 40 -2)" d="M102.952 25.21Q101.272 25.21 100.057 24.5264Q98.8456 23.8428 98.1913 22.583Q97.5419 21.3232 97.5419 19.5947Q97.5419 17.9102 98.1962 16.6406Q98.8505 15.3711 100.037 14.6631Q101.228 13.9502 102.83 13.9502Q103.914 13.9502 104.847 14.2969Q105.779 14.6387 106.477 15.332Q107.181 16.0205 107.571 17.0605Q107.962 18.0957 107.962 19.4873L107.962 20.3174L98.7529 20.3174L98.7529 18.4424L105.115 18.4424Q105.11 17.793 104.827 17.29Q104.544 16.7822 104.041 16.4941Q103.543 16.2061 102.884 16.2061Q102.195 16.2061 101.663 16.5234Q101.136 16.8408 100.838 17.373Q100.54 17.9004 100.53 18.5449L100.53 20.3271Q100.53 21.1377 100.833 21.7285Q101.141 22.3193 101.692 22.6367Q102.249 22.9541 103.001 22.9541Q103.509 22.9541 103.924 22.8125Q104.344 22.666 104.642 22.3877Q104.944 22.1045 105.101 21.6943L107.893 21.875Q107.684 22.8857 107.024 23.6377Q106.37 24.3848 105.335 24.7998Q104.305 25.21 102.952 25.21Z" fill-rule="nonzero" fill="rgb(255, 255, 255)"/>
</svg>
